<mxfile host="app.diagrams.net" modified="2023-08-02T18:02:39.734Z" agent="Mozilla/5.0 (Windows NT 10.0; Win64; x64) AppleWebKit/537.36 (KHTML, like Gecko) Chrome/115.0.0.0 Safari/537.36" etag="sToMeC6R-_zzt0MbDWme" version="21.6.6" type="google">
  <diagram name="PÃ¡gina-1" id="5HMB-gP2c6z5_JxAPwzC">
    <mxGraphModel grid="1" page="1" gridSize="10" guides="1" tooltips="1" connect="1" arrows="1" fold="1" pageScale="1" pageWidth="850" pageHeight="1100" math="0" shadow="0">
      <root>
        <mxCell id="0" />
        <mxCell id="1" parent="0" />
        <mxCell id="JmXCaeqR3x0JS1tAwZ0q-14" style="rounded=0;orthogonalLoop=1;jettySize=auto;html=1;exitX=1;exitY=0.5;exitDx=0;exitDy=0;entryX=0;entryY=0.5;entryDx=0;entryDy=0;" edge="1" parent="1" source="JmXCaeqR3x0JS1tAwZ0q-2" target="JmXCaeqR3x0JS1tAwZ0q-10">
          <mxGeometry relative="1" as="geometry" />
        </mxCell>
        <mxCell id="JmXCaeqR3x0JS1tAwZ0q-21" style="rounded=0;orthogonalLoop=1;jettySize=auto;html=1;exitX=1;exitY=0.5;exitDx=0;exitDy=0;entryX=0;entryY=0.5;entryDx=0;entryDy=0;" edge="1" parent="1" source="JmXCaeqR3x0JS1tAwZ0q-2" target="JmXCaeqR3x0JS1tAwZ0q-17">
          <mxGeometry relative="1" as="geometry" />
        </mxCell>
        <mxCell id="JmXCaeqR3x0JS1tAwZ0q-22" style="rounded=0;orthogonalLoop=1;jettySize=auto;html=1;exitX=1;exitY=0.5;exitDx=0;exitDy=0;entryX=0;entryY=0.5;entryDx=0;entryDy=0;" edge="1" parent="1" source="JmXCaeqR3x0JS1tAwZ0q-2" target="JmXCaeqR3x0JS1tAwZ0q-19">
          <mxGeometry relative="1" as="geometry" />
        </mxCell>
        <mxCell id="JmXCaeqR3x0JS1tAwZ0q-2" value="PuntosRefacciones_" style="rounded=1;whiteSpace=wrap;html=1;" vertex="1" parent="1">
          <mxGeometry x="80" y="150" width="120" height="60" as="geometry" />
        </mxCell>
        <mxCell id="JmXCaeqR3x0JS1tAwZ0q-3" value="Gestion_&lt;br&gt;NombreIndicadores&lt;br&gt;KPIPuntosGerentes_&lt;br&gt;FechasGestion_" style="rounded=1;whiteSpace=wrap;html=1;" vertex="1" parent="1">
          <mxGeometry x="290" y="60" width="120" height="80" as="geometry" />
        </mxCell>
        <mxCell id="JmXCaeqR3x0JS1tAwZ0q-7" value="" style="endArrow=classic;html=1;rounded=0;exitX=1;exitY=0.5;exitDx=0;exitDy=0;entryX=0;entryY=0.75;entryDx=0;entryDy=0;" edge="1" parent="1" source="JmXCaeqR3x0JS1tAwZ0q-2" target="JmXCaeqR3x0JS1tAwZ0q-8">
          <mxGeometry width="50" height="50" relative="1" as="geometry">
            <mxPoint x="400" y="260" as="sourcePoint" />
            <mxPoint x="450" y="210" as="targetPoint" />
          </mxGeometry>
        </mxCell>
        <mxCell id="JmXCaeqR3x0JS1tAwZ0q-8" value="501, 502" style="rounded=1;whiteSpace=wrap;html=1;" vertex="1" parent="1">
          <mxGeometry x="290" y="20" width="120" height="30" as="geometry" />
        </mxCell>
        <mxCell id="JmXCaeqR3x0JS1tAwZ0q-10" value="503" style="rounded=1;whiteSpace=wrap;html=1;" vertex="1" parent="1">
          <mxGeometry x="290" y="170" width="120" height="30" as="geometry" />
        </mxCell>
        <mxCell id="JmXCaeqR3x0JS1tAwZ0q-11" value="Gestion_&lt;br&gt;NombreIndicadores&lt;br&gt;&lt;span style=&quot;background-color: rgb(255, 128, 0);&quot;&gt;objetivorefvta_&lt;/span&gt;&lt;br&gt;FechasGestion_" style="rounded=1;whiteSpace=wrap;html=1;" vertex="1" parent="1">
          <mxGeometry x="290" y="220" width="120" height="80" as="geometry" />
        </mxCell>
        <mxCell id="JmXCaeqR3x0JS1tAwZ0q-30" style="rounded=0;orthogonalLoop=1;jettySize=auto;html=1;exitX=1;exitY=0.5;exitDx=0;exitDy=0;entryX=0;entryY=0.5;entryDx=0;entryDy=0;" edge="1" parent="1" source="JmXCaeqR3x0JS1tAwZ0q-17" target="JmXCaeqR3x0JS1tAwZ0q-28">
          <mxGeometry relative="1" as="geometry" />
        </mxCell>
        <mxCell id="JmXCaeqR3x0JS1tAwZ0q-17" value="504" style="rounded=1;whiteSpace=wrap;html=1;" vertex="1" parent="1">
          <mxGeometry x="290" y="320" width="120" height="30" as="geometry" />
        </mxCell>
        <mxCell id="JmXCaeqR3x0JS1tAwZ0q-36" style="rounded=0;orthogonalLoop=1;jettySize=auto;html=1;exitX=1;exitY=0.5;exitDx=0;exitDy=0;entryX=0;entryY=0.5;entryDx=0;entryDy=0;" edge="1" parent="1" source="JmXCaeqR3x0JS1tAwZ0q-18" target="JmXCaeqR3x0JS1tAwZ0q-33">
          <mxGeometry relative="1" as="geometry" />
        </mxCell>
        <mxCell id="JmXCaeqR3x0JS1tAwZ0q-18" value="&lt;span style=&quot;background-color: rgb(153, 255, 51);&quot;&gt;REFINV_ACUM_&lt;br&gt;refcomhst_&lt;/span&gt;&lt;br&gt;NombreIndicadores&lt;br&gt;KPIPuntosGerentes" style="rounded=1;whiteSpace=wrap;html=1;" vertex="1" parent="1">
          <mxGeometry x="290" y="360" width="120" height="80" as="geometry" />
        </mxCell>
        <mxCell id="JmXCaeqR3x0JS1tAwZ0q-19" value="505" style="rounded=1;whiteSpace=wrap;html=1;" vertex="1" parent="1">
          <mxGeometry x="290" y="450" width="120" height="30" as="geometry" />
        </mxCell>
        <mxCell id="JmXCaeqR3x0JS1tAwZ0q-31" style="rounded=0;orthogonalLoop=1;jettySize=auto;html=1;exitX=1;exitY=0.5;exitDx=0;exitDy=0;entryX=0;entryY=0.5;entryDx=0;entryDy=0;" edge="1" parent="1" source="JmXCaeqR3x0JS1tAwZ0q-20" target="JmXCaeqR3x0JS1tAwZ0q-28">
          <mxGeometry relative="1" as="geometry">
            <mxPoint x="490" y="390" as="targetPoint" />
          </mxGeometry>
        </mxCell>
        <mxCell id="JmXCaeqR3x0JS1tAwZ0q-32" style="rounded=0;orthogonalLoop=1;jettySize=auto;html=1;exitX=1;exitY=0.5;exitDx=0;exitDy=0;entryX=0;entryY=0.5;entryDx=0;entryDy=0;" edge="1" parent="1" source="JmXCaeqR3x0JS1tAwZ0q-20" target="JmXCaeqR3x0JS1tAwZ0q-24">
          <mxGeometry relative="1" as="geometry" />
        </mxCell>
        <mxCell id="JmXCaeqR3x0JS1tAwZ0q-20" value="&lt;span style=&quot;background-color: rgb(153, 255, 51);&quot;&gt;REFINV_ACUM505_&lt;br&gt;refcomhst_&lt;br&gt;&lt;/span&gt;NombreIndicadores&lt;br&gt;KPIPuntosGerentes" style="rounded=1;whiteSpace=wrap;html=1;" vertex="1" parent="1">
          <mxGeometry x="290" y="490" width="120" height="80" as="geometry" />
        </mxCell>
        <mxCell id="JmXCaeqR3x0JS1tAwZ0q-24" value="REFINV_ACUM505_" style="rounded=1;whiteSpace=wrap;html=1;" vertex="1" parent="1">
          <mxGeometry x="490" y="520" width="120" height="40" as="geometry" />
        </mxCell>
        <mxCell id="JmXCaeqR3x0JS1tAwZ0q-25" value="REFINV_ACUMManual&lt;br&gt;REFINV_Fantasma&lt;br&gt;Directorio&lt;br&gt;&lt;b&gt;REFINV_ACUM505_Paso&lt;/b&gt;&lt;br&gt;REFINV_ACUM" style="rounded=1;whiteSpace=wrap;html=1;" vertex="1" parent="1">
          <mxGeometry x="460" y="570" width="180" height="90" as="geometry" />
        </mxCell>
        <mxCell id="JmXCaeqR3x0JS1tAwZ0q-28" value="Se duplica 504 y 505 para Mercedez Benz" style="rounded=0;whiteSpace=wrap;html=1;fillColor=#FFFF99;" vertex="1" parent="1">
          <mxGeometry x="510" y="290" width="120" height="60" as="geometry" />
        </mxCell>
        <mxCell id="JmXCaeqR3x0JS1tAwZ0q-33" value="REFINV_ACUM_" style="rounded=1;whiteSpace=wrap;html=1;" vertex="1" parent="1">
          <mxGeometry x="500" y="370" width="120" height="40" as="geometry" />
        </mxCell>
        <mxCell id="JmXCaeqR3x0JS1tAwZ0q-34" value="REFINV_ACUMManual&lt;br&gt;Directorio&lt;br&gt;&lt;b&gt;REFINV_ACUM_Paso&lt;/b&gt;&lt;br&gt;REFINV_ACUM" style="rounded=1;whiteSpace=wrap;html=1;" vertex="1" parent="1">
          <mxGeometry x="480" y="420" width="180" height="80" as="geometry" />
        </mxCell>
        <mxCell id="JmXCaeqR3x0JS1tAwZ0q-35" style="edgeStyle=orthogonalEdgeStyle;rounded=0;orthogonalLoop=1;jettySize=auto;html=1;exitX=0.5;exitY=1;exitDx=0;exitDy=0;" edge="1" parent="1" source="JmXCaeqR3x0JS1tAwZ0q-25" target="JmXCaeqR3x0JS1tAwZ0q-25">
          <mxGeometry relative="1" as="geometry" />
        </mxCell>
      </root>
    </mxGraphModel>
  </diagram>
</mxfile>
